<?xml version="1.0" encoding="UTF-8"?>
<!DOCTYPE svg PUBLIC "-//W3C//DTD SVG 1.1//EN" "http://www.w3.org/Graphics/SVG/1.1/DTD/svg11.dtd">
<svg xmlns="http://www.w3.org/2000/svg" version="1.1" width="668px" height="420px" style="shape-rendering:geometricPrecision; text-rendering:geometricPrecision; image-rendering:optimizeQuality; fill-rule:evenodd; clip-rule:evenodd" xmlns:xlink="http://www.w3.org/1999/xlink">
<g><path style="opacity:0.986" fill="#8acdbe" d="M 100.5,46.5 C 100.5,73.8333 100.5,101.167 100.5,128.5C 91.1763,127.506 82.843,124.173 75.5,118.5C 75.5,97.5 75.5,76.5 75.5,55.5C 82.7413,49.6019 91.0747,46.6019 100.5,46.5 Z"/></g>
<g><path style="opacity:0.983" fill="#87cac0" d="M 100.5,46.5 C 125.293,47.7894 139.46,60.7894 143,85.5C 144.596,88.3695 146.43,91.0361 148.5,93.5C 148.5,115.5 148.5,137.5 148.5,159.5C 135.989,150.497 123.323,141.664 110.5,133C 107.179,131.396 103.846,129.896 100.5,128.5C 100.5,101.167 100.5,73.8333 100.5,46.5 Z"/></g>
<g><path style="opacity:0.99" fill="#58a7d7" d="M 590.5,46.5 C 590.5,73.8333 590.5,101.167 590.5,128.5C 584.958,129.937 579.625,131.937 574.5,134.5C 574.5,105.5 574.5,76.5 574.5,47.5C 579.787,46.6576 585.12,46.3243 590.5,46.5 Z"/></g>
<g><path style="opacity:0.972" fill="#55a5d8" d="M 590.5,46.5 C 614.758,49.9246 628.425,63.7579 631.5,88C 629.371,105.795 620.037,118.128 603.5,125C 599.171,126.332 594.838,127.498 590.5,128.5C 590.5,101.167 590.5,73.8333 590.5,46.5 Z"/></g>
<g><path style="opacity:0.98" fill="#5baad6" d="M 574.5,47.5 C 574.5,76.5 574.5,105.5 574.5,134.5C 560.463,144.525 546.129,154.192 531.5,163.5C 531.5,141.5 531.5,119.5 531.5,97.5C 533.428,95.5259 535.761,94.0259 538.5,93C 543.431,86.7356 546.265,79.569 547,71.5C 552.604,59.395 561.77,51.395 574.5,47.5 Z"/></g>
<g><path style="opacity:0.938" fill="#8ccfbd" d="M 75.5,55.5 C 75.5,76.5 75.5,97.5 75.5,118.5C 58.3939,103.46 55.2272,85.7935 66,65.5C 68.6682,61.6659 71.8348,58.3325 75.5,55.5 Z"/></g>
<g><path style="opacity:0.979" fill="#84c8c2" d="M 148.5,93.5 C 152.41,95.0875 155.743,97.4208 158.5,100.5C 158.5,122.5 158.5,144.5 158.5,166.5C 155.167,164.167 151.833,161.833 148.5,159.5C 148.5,137.5 148.5,115.5 148.5,93.5 Z"/></g>
<g><path style="opacity:0.979" fill="#5eacd5" d="M 531.5,97.5 C 531.5,119.5 531.5,141.5 531.5,163.5C 528.709,165.735 525.709,167.735 522.5,169.5C 522.5,147.5 522.5,125.5 522.5,103.5C 525.291,101.265 528.291,99.2651 531.5,97.5 Z"/></g>
<g><path style="opacity:0.981" fill="#83c8c1" d="M 158.5,100.5 C 162.054,101.769 165.054,103.769 167.5,106.5C 167.5,128.5 167.5,150.5 167.5,172.5C 164.5,170.5 161.5,168.5 158.5,166.5C 158.5,144.5 158.5,122.5 158.5,100.5 Z"/></g>
<g><path style="opacity:0.981" fill="#5fadd3" d="M 522.5,103.5 C 522.5,125.5 522.5,147.5 522.5,169.5C 513.68,175.745 504.68,181.745 495.5,187.5C 495.5,165.5 495.5,143.5 495.5,121.5C 503.947,114.769 512.947,108.769 522.5,103.5 Z"/></g>
<g><path style="opacity:0.981" fill="#7fc5c3" d="M 167.5,106.5 C 187.887,120.02 207.887,134.02 227.5,148.5C 227.5,187.833 227.5,227.167 227.5,266.5C 207.537,279.82 187.537,293.154 167.5,306.5C 167.5,284.5 167.5,262.5 167.5,240.5C 181.434,230.856 195.434,221.189 209.5,211.5C 210.783,208.628 210.783,205.795 209.5,203C 195.318,192.97 181.318,182.803 167.5,172.5C 167.5,150.5 167.5,128.5 167.5,106.5 Z"/></g>
<g><path style="opacity:0.98" fill="#62afd2" d="M 495.5,121.5 C 495.5,143.5 495.5,165.5 495.5,187.5C 488.394,193.56 480.728,198.893 472.5,203.5C 472.5,181.167 472.5,158.833 472.5,136.5C 479.892,131.114 487.558,126.114 495.5,121.5 Z"/></g>
<g><path style="opacity:0.986" fill="#66b2d0" d="M 472.5,136.5 C 472.5,158.833 472.5,181.167 472.5,203.5C 472.5,206.167 472.5,208.833 472.5,211.5C 472.5,233.5 472.5,255.5 472.5,277.5C 451.78,264.95 431.447,251.784 411.5,238C 408.996,237.302 406.663,236.469 404.5,235.5C 404.5,216.5 404.5,197.5 404.5,178.5C 415.722,176.723 425.056,171.556 432.5,163C 445.719,153.898 459.052,145.064 472.5,136.5 Z"/></g>
<g><path style="opacity:0.987" fill="#7bc2c6" d="M 227.5,148.5 C 234.049,152.934 240.383,157.601 246.5,162.5C 246.5,192.833 246.5,223.167 246.5,253.5C 240.464,258.191 234.131,262.525 227.5,266.5C 227.5,227.167 227.5,187.833 227.5,148.5 Z"/></g>
<g><path style="opacity:0.983" fill="#79c0c7" d="M 246.5,162.5 C 253.172,166.841 259.838,171.174 266.5,175.5C 266.5,197.5 266.5,219.5 266.5,241.5C 259.474,245.008 252.807,249.008 246.5,253.5C 246.5,223.167 246.5,192.833 246.5,162.5 Z"/></g>
<g><path style="opacity:0.983" fill="#77bfc8" d="M 266.5,175.5 C 272.963,177.775 279.629,179.108 286.5,179.5C 286.5,198.5 286.5,217.5 286.5,236.5C 279.628,237.407 272.962,239.074 266.5,241.5C 266.5,219.5 266.5,197.5 266.5,175.5 Z"/></g>
<g><path style="opacity:0.986" fill="#6db7cd" d="M 404.5,178.5 C 404.5,197.5 404.5,216.5 404.5,235.5C 384.862,236.146 365.195,236.146 345.5,235.5C 345.5,216.833 345.5,198.167 345.5,179.5C 365.213,179.809 384.879,179.476 404.5,178.5 Z"/></g>
<g><path style="opacity:0.985" fill="#74bcc9" d="M 286.5,179.5 C 299.167,179.5 311.833,179.5 324.5,179.5C 324.5,198.167 324.5,216.833 324.5,235.5C 311.817,235.374 299.15,235.707 286.5,236.5C 286.5,217.5 286.5,198.5 286.5,179.5 Z"/></g>
<g><path style="opacity:0.984" fill="#71baca" d="M 324.5,179.5 C 331.5,179.5 338.5,179.5 345.5,179.5C 345.5,198.167 345.5,216.833 345.5,235.5C 338.5,235.5 331.5,235.5 324.5,235.5C 324.5,216.833 324.5,198.167 324.5,179.5 Z"/></g>
<g><path style="opacity:0.98" fill="#62afd2" d="M 472.5,211.5 C 480.687,215.756 488.354,220.756 495.5,226.5C 495.5,248.5 495.5,270.5 495.5,292.5C 487.626,287.735 479.959,282.735 472.5,277.5C 472.5,255.5 472.5,233.5 472.5,211.5 Z"/></g>
<g><path style="opacity:0.98" fill="#5fadd3" d="M 495.5,226.5 C 504.772,231.779 513.772,237.446 522.5,243.5C 522.5,265.5 522.5,287.5 522.5,309.5C 513.669,303.583 504.669,297.917 495.5,292.5C 495.5,270.5 495.5,248.5 495.5,226.5 Z"/></g>
<g><path style="opacity:0.979" fill="#83c8c1" d="M 167.5,240.5 C 167.5,262.5 167.5,284.5 167.5,306.5C 164.709,308.735 161.709,310.735 158.5,312.5C 158.5,290.5 158.5,268.5 158.5,246.5C 161.357,244.242 164.357,242.242 167.5,240.5 Z"/></g>
<g><path style="opacity:0.978" fill="#5eacd5" d="M 522.5,243.5 C 525.709,245.265 528.709,247.265 531.5,249.5C 531.5,271.5 531.5,293.5 531.5,315.5C 528.5,313.5 525.5,311.5 522.5,309.5C 522.5,287.5 522.5,265.5 522.5,243.5 Z"/></g>
<g><path style="opacity:0.979" fill="#84c8c2" d="M 158.5,246.5 C 158.5,268.5 158.5,290.5 158.5,312.5C 154.903,314.756 151.569,317.423 148.5,320.5C 148.5,298.167 148.5,275.833 148.5,253.5C 151.833,251.167 155.167,248.833 158.5,246.5 Z"/></g>
<g><path style="opacity:0.981" fill="#5baad6" d="M 531.5,249.5 C 546.041,258.598 560.374,267.931 574.5,277.5C 574.5,305.833 574.5,334.167 574.5,362.5C 565.774,359.276 558.607,353.942 553,346.5C 549.745,340.4 547.079,334.066 545,327.5C 540.926,322.921 536.426,318.921 531.5,315.5C 531.5,293.5 531.5,271.5 531.5,249.5 Z"/></g>
<g><path style="opacity:0.982" fill="#87cac0" d="M 148.5,253.5 C 148.5,275.833 148.5,298.167 148.5,320.5C 146.537,321.96 144.704,323.627 143,325.5C 140.364,331.373 138.031,337.373 136,343.5C 128.017,357.073 116.184,363.74 100.5,363.5C 100.5,336.5 100.5,309.5 100.5,282.5C 105.697,280.904 110.697,278.738 115.5,276C 126.381,268.279 137.381,260.779 148.5,253.5 Z"/></g>
<g><path style="opacity:0.991" fill="#58a7d7" d="M 574.5,277.5 C 579.575,279.969 584.908,281.636 590.5,282.5C 590.5,309.5 590.5,336.5 590.5,363.5C 585.12,363.676 579.787,363.342 574.5,362.5C 574.5,334.167 574.5,305.833 574.5,277.5 Z"/></g>
<g><path style="opacity:0.985" fill="#8acdbe" d="M 100.5,282.5 C 100.5,309.5 100.5,336.5 100.5,363.5C 91.1583,363.607 82.8249,360.94 75.5,355.5C 75.5,333.833 75.5,312.167 75.5,290.5C 82.8665,285.233 91.1998,282.567 100.5,282.5 Z"/></g>
<g><path style="opacity:0.974" fill="#55a5d8" d="M 590.5,282.5 C 619.355,285.523 632.855,301.523 631,330.5C 627.878,345.623 619.044,355.789 604.5,361C 599.937,362.475 595.27,363.308 590.5,363.5C 590.5,336.5 590.5,309.5 590.5,282.5 Z"/></g>
<g><path style="opacity:0.946" fill="#8ccfbd" d="M 75.5,290.5 C 75.5,312.167 75.5,333.833 75.5,355.5C 64.75,347.499 59.4166,336.665 59.5,323C 59.4245,309.319 64.7579,298.486 75.5,290.5 Z"/></g>
</svg>
