<svg xmlns="http://www.w3.org/2000/svg" version="1.1" width="300px" height="418px" style="shape-rendering:geometricPrecision; text-rendering:geometricPrecision; image-rendering:optimizeQuality; fill-rule:evenodd; clip-rule:evenodd" xmlns:xlink="http://www.w3.org/1999/xlink">
<g><path style="opacity:0.991" fill="#8acdc0" d="M 1451.5,-0.5 C 1453.5,-0.5 1455.5,-0.5 1457.5,-0.5C 1457.5,35.8333 1457.5,72.1667 1457.5,108.5C 1450.26,107.254 1443.26,105.254 1436.5,102.5C 1436.5,69.8333 1436.5,37.1667 1436.5,4.5C 1441.26,2.06124 1446.26,0.394568 1451.5,-0.5 Z"/></g>
<g><path style="opacity:0.991" fill="#88ccc1" d="M 1457.5,-0.5 C 1459.5,-0.5 1461.5,-0.5 1463.5,-0.5C 1467.39,0.490092 1471.39,1.49009 1475.5,2.5C 1475.5,40.8333 1475.5,79.1667 1475.5,117.5C 1469.5,114.495 1463.5,111.495 1457.5,108.5C 1457.5,72.1667 1457.5,35.8333 1457.5,-0.5 Z"/></g>
<g><path style="opacity:0.988" fill="#5ba9d8" d="M 2089.5,-0.5 C 2090.83,-0.5 2092.17,-0.5 2093.5,-0.5C 2093.5,36.1667 2093.5,72.8333 2093.5,109.5C 2087.58,111.793 2081.91,114.626 2076.5,118C 2063.78,127.018 2050.78,135.518 2037.5,143.5C 2037.5,113.5 2037.5,83.5 2037.5,53.5C 2041.83,22.7521 2059.16,4.7521 2089.5,-0.5 Z"/></g>
<g><path style="opacity:0.991" fill="#58a7d9" d="M 2093.5,-0.5 C 2096.17,-0.5 2098.83,-0.5 2101.5,-0.5C 2105.68,0.626966 2110.02,1.62697 2114.5,2.5C 2114.5,36.1667 2114.5,69.8333 2114.5,103.5C 2107.62,105.601 2100.62,107.601 2093.5,109.5C 2093.5,72.8333 2093.5,36.1667 2093.5,-0.5 Z"/></g>
<g><path style="opacity:0.991" fill="#88ccc1" d="M 1475.5,2.5 C 1476.17,2.83333 1476.83,3.16667 1477.5,3.5C 1477.5,42.1667 1477.5,80.8333 1477.5,119.5C 1476.5,119.167 1475.83,118.5 1475.5,117.5C 1475.5,79.1667 1475.5,40.8333 1475.5,2.5 Z"/></g>
<g><path style="opacity:0.987" fill="#57a6da" d="M 2114.5,2.5 C 2119.82,4.15678 2124.49,6.82344 2128.5,10.5C 2128.5,39.1667 2128.5,67.8333 2128.5,96.5C 2124.43,99.8681 2119.76,102.201 2114.5,103.5C 2114.5,69.8333 2114.5,36.1667 2114.5,2.5 Z"/></g>
<g><path style="opacity:0.989" fill="#88ccc0" d="M 1477.5,3.5 C 1479.82,3.99249 1481.82,4.99249 1483.5,6.5C 1483.5,45.5 1483.5,84.5 1483.5,123.5C 1481.2,122.525 1479.2,121.192 1477.5,119.5C 1477.5,80.8333 1477.5,42.1667 1477.5,3.5 Z"/></g>
<g><path style="opacity:0.974" fill="#8bcfbe" d="M 1436.5,4.5 C 1436.5,37.1667 1436.5,69.8333 1436.5,102.5C 1408.78,89.2564 1398.28,67.5898 1405,37.5C 1410.59,21.7452 1421.09,10.7452 1436.5,4.5 Z"/></g>
<g><path style="opacity:0.986" fill="#86c9c2" d="M 1483.5,6.5 C 1499.59,15.7919 1508.75,29.7919 1511,48.5C 1512.45,53.8948 1515.28,58.3948 1519.5,62C 1528.37,67.5957 1537.03,73.429 1545.5,79.5C 1545.5,108.5 1545.5,137.5 1545.5,166.5C 1524.48,152.657 1503.81,138.324 1483.5,123.5C 1483.5,84.5 1483.5,45.5 1483.5,6.5 Z"/></g>
<g><path style="opacity:0.986" fill="#57a6db" d="M 2128.5,10.5 C 2130.03,10.427 2131.03,11.0937 2131.5,12.5C 2131.5,39.8333 2131.5,67.1667 2131.5,94.5C 2130.71,95.4013 2129.71,96.0679 2128.5,96.5C 2128.5,67.8333 2128.5,39.1667 2128.5,10.5 Z"/></g>
<g><path style="opacity:0.977" fill="#56a6da" d="M 2131.5,12.5 C 2135.12,14.4528 2138.12,17.1195 2140.5,20.5C 2140.5,42.1667 2140.5,63.8333 2140.5,85.5C 2138.52,89.4784 2135.52,92.4784 2131.5,94.5C 2131.5,67.1667 2131.5,39.8333 2131.5,12.5 Z"/></g>
<g><path style="opacity:0.97" fill="#56a6db" d="M 2140.5,20.5 C 2143.24,22.9754 2145.24,25.9754 2146.5,29.5C 2146.5,45.5 2146.5,61.5 2146.5,77.5C 2145.47,80.8908 2143.47,83.5574 2140.5,85.5C 2140.5,63.8333 2140.5,42.1667 2140.5,20.5 Z"/></g>
<g><path style="opacity:0.987" fill="#000000" d="M -0.5,238.5 C -0.5,219.167 -0.5,199.833 -0.5,180.5C 6.46588,146.753 20.6325,116.419 42,89.5C 74.982,52.9267 116.149,32.7601 165.5,29C 245.166,27.1101 324.832,27.1101 404.5,29C 414.929,29.7877 421.095,35.2877 423,45.5C 425.412,60.3287 424.746,74.9953 421,89.5C 417.892,95.2606 413.059,98.7606 406.5,100C 335.193,101.311 263.86,101.977 192.5,102C 140.699,103.127 103.865,126.96 82,173.5C 68.4473,216.79 77.614,254.624 109.5,287C 132.77,307.65 160.103,317.65 191.5,317C 237.856,318.941 284.189,318.607 330.5,316C 343.107,312.329 349.607,303.829 350,290.5C 351.211,257.161 351.877,223.828 352,190.5C 353.627,180.54 359.46,175.04 369.5,174C 381.5,173.333 393.5,173.333 405.5,174C 413.361,175.168 418.861,179.335 422,186.5C 423.106,191.769 423.773,197.103 424,202.5C 424.74,259.506 424.406,316.506 423,373.5C 421.958,380.755 418.125,385.921 411.5,389C 398.556,390.256 385.556,390.923 372.5,391C 301.826,391.859 231.16,391.526 160.5,390C 91.5956,381.977 42.7623,346.477 14,283.5C 8.6812,268.523 3.84786,253.523 -0.5,238.5 Z"/></g>
<g><path style="opacity:0.987" fill="#000000" d="M 949.5,27.5 C 974.469,25.5735 997.135,31.7402 1017.5,46C 1088.17,112.667 1158.83,179.333 1229.5,246C 1254.65,269.347 1268.48,263.847 1271,229.5C 1271.33,169.5 1271.67,109.5 1272,49.5C 1272.74,37.092 1279.24,30.2587 1291.5,29C 1302.5,28.3333 1313.5,28.3333 1324.5,29C 1332.88,29.7301 1338.72,33.8968 1342,41.5C 1343.06,46.1042 1343.73,50.7709 1344,55.5C 1344.67,158.833 1344.67,262.167 1344,365.5C 1344.47,379.35 1337.97,387.517 1324.5,390C 1293.56,395.681 1266.23,388.347 1242.5,368C 1172.77,300.935 1102.44,234.601 1031.5,169C 1023.94,162.7 1015.27,160.034 1005.5,161C 1000.24,166.416 997.076,172.916 996,180.5C 995.159,246.197 994.159,311.864 993,377.5C 990.044,384.901 984.544,388.734 976.5,389C 959.9,390.05 943.567,388.384 927.5,384C 923.425,378.226 921.258,371.726 921,364.5C 920.333,259.5 920.333,154.5 921,49.5C 921.535,39.2423 926.701,32.7423 936.5,30C 940.988,29.2398 945.322,28.4065 949.5,27.5 Z"/></g>
<g><path style="opacity:0.99" fill="#000000" d="M 2352.5,27.5 C 2378.19,25.565 2401.19,32.3984 2421.5,48C 2491.58,115.088 2561.92,181.754 2632.5,248C 2640.36,252.598 2648.7,256.098 2657.5,258.5C 2660.63,258.352 2663.13,257.018 2665,254.5C 2667.97,249.921 2669.97,244.921 2671,239.5C 2672.18,176.507 2672.84,113.507 2673,50.5C 2673.23,37.6021 2679.73,30.4354 2692.5,29C 2703.5,28.3333 2714.5,28.3333 2725.5,29C 2738.27,30.4354 2744.77,37.6021 2745,50.5C 2745.67,157.167 2745.67,263.833 2745,370.5C 2743.85,382.32 2737.35,388.82 2725.5,390C 2698.48,395.076 2673.82,389.743 2651.5,374C 2581.47,307.634 2511.13,241.634 2440.5,176C 2436.5,172.667 2432.5,169.333 2428.5,166C 2421.8,161.491 2414.46,159.824 2406.5,161C 2401.05,166.73 2397.89,173.563 2397,181.5C 2396.2,246.552 2395.2,311.552 2394,376.5C 2390.46,384.032 2384.62,388.865 2376.5,391C 2363.49,391.428 2350.49,391.095 2337.5,390C 2328.17,386.869 2323.01,380.369 2322,370.5C 2321.33,264.5 2321.33,158.5 2322,52.5C 2321.76,44.6055 2324.59,38.1055 2330.5,33C 2337.69,30.0677 2345.03,28.2343 2352.5,27.5 Z"/></g>
<g><path style="opacity:0.989" fill="#000000" d="M 478.5,28.5 C 608.834,28.3333 739.167,28.5 869.5,29C 875,30.5 878.5,34 880,39.5C 883.431,56.5616 883.097,73.5616 879,90.5C 878.535,91.9308 877.701,93.0975 876.5,94C 871.466,96.7893 866.132,98.7893 860.5,100C 793.175,101.111 725.841,101.611 658.5,101.5C 598.143,101.651 537.81,101.151 477.5,100C 467.354,97.5152 461.854,91.0152 461,80.5C 460.333,68.8333 460.333,57.1667 461,45.5C 463.423,36.2428 469.256,30.5762 478.5,28.5 Z"/></g>
<g><path style="opacity:0.984" fill="#000000" d="M 2229.5,28.5 C 2243.22,28.0939 2256.88,28.5939 2270.5,30C 2276.33,31.8333 2280.17,35.6667 2282,41.5C 2282.94,45.1141 2283.61,48.7808 2284,52.5C 2284.42,156.155 2284.42,259.821 2284,363.5C 2284.11,370.954 2282.44,377.954 2279,384.5C 2275.63,387.269 2271.8,389.102 2267.5,390C 2253.42,392.304 2239.42,391.971 2225.5,389C 2217.68,386.187 2213.18,380.687 2212,372.5C 2211.33,263.833 2211.33,155.167 2212,46.5C 2213.99,36.6807 2219.82,30.6807 2229.5,28.5 Z"/></g>
<g><path style="opacity:0.989" fill="#000000" d="M 2801.5,28.5 C 2928.83,28.3333 3056.17,28.5 3183.5,29C 3193.14,30.7532 3197.64,36.5865 3197,46.5C 3198.06,62.3628 3196.73,78.0294 3193,93.5C 3188.83,97.0074 3183.99,99.1741 3178.5,100C 3173.83,100.333 3169.17,100.667 3164.5,101C 3127.5,101.333 3090.5,101.667 3053.5,102C 3043.81,102.264 3035.97,106.098 3030,113.5C 3026.93,120.502 3025.27,127.835 3025,135.5C 3024.67,214.833 3024.33,294.167 3024,373.5C 3023.15,382.347 3018.32,387.18 3009.5,388C 2991.95,389.421 2974.62,388.088 2957.5,384C 2955.24,381.228 2953.74,378.062 2953,374.5C 2951.71,348.874 2951.05,323.208 2951,297.5C 2950.67,244.167 2950.33,190.833 2950,137.5C 2949.74,129.193 2948.07,121.193 2945,113.5C 2939.55,105.857 2932.05,102.023 2922.5,102C 2880.5,101.667 2838.5,101.333 2796.5,101C 2784.76,100.929 2778.6,95.0952 2778,83.5C 2776.78,68.3434 2777.78,53.3434 2781,38.5C 2782.27,35.0874 2784.77,32.9208 2788.5,32C 2792.92,30.6476 2797.25,29.481 2801.5,28.5 Z"/></g>
<g><path style="opacity:0.988" fill="#000000" d="M 3251.5,28.5 C 3376.17,28.3333 3500.83,28.5 3625.5,29C 3634.47,29.655 3642.63,32.4883 3650,37.5C 3654.7,56.2305 3654.37,74.8971 3649,93.5C 3644.08,97.0303 3638.58,99.1969 3632.5,100C 3565.51,101.117 3498.51,101.617 3431.5,101.5C 3370.48,101.651 3309.48,101.151 3248.5,100C 3239.55,98.0494 3234.38,92.5494 3233,83.5C 3231.17,70.825 3231.17,58.1584 3233,45.5C 3235.14,35.3612 3241.31,29.6945 3251.5,28.5 Z"/></g>
<g><path style="opacity:0.987" fill="#000000" d="M 4121.5,335.5 C 4121.5,348.167 4121.5,360.833 4121.5,373.5C 4115.87,384.259 4106.87,390.092 4094.5,391C 4034.5,390.398 3974.5,390.565 3914.5,391.5C 3894.5,391.176 3874.5,390.676 3854.5,390C 3784.57,380.384 3735.73,343.217 3708,278.5C 3702.45,263.627 3698.78,248.293 3697,232.5C 3695.42,173.511 3695.09,114.511 3696,55.5C 3694.79,39.7195 3701.96,30.8862 3717.5,29C 3728.17,28.3333 3738.83,28.3333 3749.5,29C 3760.87,30.0379 3767.37,36.2046 3769,47.5C 3770.19,102.491 3770.86,157.491 3771,212.5C 3775.23,257.151 3797.73,288.651 3838.5,307C 3854.27,313.017 3870.6,316.351 3887.5,317C 3955.17,318.514 4022.84,318.847 4090.5,318C 4104.54,317.678 4114.88,323.511 4121.5,335.5 Z"/></g>
<g><path style="opacity:0.948" fill="#55a5da" d="M 2146.5,29.5 C 2148.29,31.4261 2149.29,33.7594 2149.5,36.5C 2149.5,48.1667 2149.5,59.8333 2149.5,71.5C 2149.35,73.9699 2148.35,75.9699 2146.5,77.5C 2146.5,61.5 2146.5,45.5 2146.5,29.5 Z"/></g>
<g><path style="opacity:0.821" fill="#54a5db" d="M 2149.5,36.5 C 2154.83,48.1667 2154.83,59.8333 2149.5,71.5C 2149.5,59.8333 2149.5,48.1667 2149.5,36.5 Z"/></g>
<g><path style="opacity:0.984" fill="#60acd6" d="M 2037.5,53.5 C 2037.5,83.5 2037.5,113.5 2037.5,143.5C 2020.04,155.734 2002.38,167.734 1984.5,179.5C 1984.5,150.167 1984.5,120.833 1984.5,91.5C 1999.64,81.4278 2014.97,71.5945 2030.5,62C 2033.45,59.5588 2035.79,56.7255 2037.5,53.5 Z"/></g>
<g><path style="opacity:0.984" fill="#84c7c3" d="M 1545.5,79.5 C 1547.5,80.8333 1549.5,82.1667 1551.5,83.5C 1551.5,112.833 1551.5,142.167 1551.5,171.5C 1549.46,169.823 1547.46,168.156 1545.5,166.5C 1545.5,137.5 1545.5,108.5 1545.5,79.5 Z"/></g>
<g><path style="opacity:0.988" fill="#80c4c5" d="M 1551.5,83.5 C 1576.44,100.444 1601.11,117.778 1625.5,135.5C 1625.5,186.167 1625.5,236.833 1625.5,287.5C 1600.83,303.833 1576.17,320.167 1551.5,336.5C 1551.5,307.5 1551.5,278.5 1551.5,249.5C 1567.01,238.83 1582.68,228.33 1598.5,218C 1600.05,216.178 1600.71,214.011 1600.5,211.5C 1600.71,208.989 1600.05,206.822 1598.5,205C 1582.8,193.824 1567.14,182.657 1551.5,171.5C 1551.5,142.167 1551.5,112.833 1551.5,83.5 Z"/></g>
<g><path style="opacity:0.987" fill="#63afd5" d="M 1984.5,91.5 C 1984.5,120.833 1984.5,150.167 1984.5,179.5C 1980.5,182.167 1976.5,184.833 1972.5,187.5C 1972.5,158.167 1972.5,128.833 1972.5,99.5C 1976.46,96.8465 1980.46,94.1798 1984.5,91.5 Z"/></g>
<g><path style="opacity:0.984" fill="#64afd5" d="M 1972.5,99.5 C 1972.5,128.833 1972.5,158.167 1972.5,187.5C 1971.71,188.401 1970.71,189.068 1969.5,189.5C 1969.5,160.167 1969.5,130.833 1969.5,101.5C 1970.29,100.599 1971.29,99.9321 1972.5,99.5 Z"/></g>
<g><path style="opacity:0.989" fill="#66b0d2" d="M 1969.5,101.5 C 1969.5,130.833 1969.5,160.167 1969.5,189.5C 1961.87,194.775 1954.21,200.109 1946.5,205.5C 1944.34,208.935 1944.01,212.601 1945.5,216.5C 1953.81,221.5 1961.81,226.834 1969.5,232.5C 1969.5,261.5 1969.5,290.5 1969.5,319.5C 1943.9,303.895 1918.57,287.895 1893.5,271.5C 1893.5,232.167 1893.5,192.833 1893.5,153.5C 1918.45,135.685 1943.78,118.352 1969.5,101.5 Z"/></g>
<g><path style="opacity:0.991" fill="#7ec3c7" d="M 1625.5,135.5 C 1626.83,136.167 1627.83,137.167 1628.5,138.5C 1628.5,187.5 1628.5,236.5 1628.5,285.5C 1627.5,286.167 1626.5,286.833 1625.5,287.5C 1625.5,236.833 1625.5,186.167 1625.5,135.5 Z"/></g>
<g><path style="opacity:0.992" fill="#7dc2c6" d="M 1628.5,138.5 C 1632.02,139.759 1635.02,141.759 1637.5,144.5C 1637.5,189.5 1637.5,234.5 1637.5,279.5C 1634.5,281.5 1631.5,283.5 1628.5,285.5C 1628.5,236.5 1628.5,187.5 1628.5,138.5 Z"/></g>
<g><path style="opacity:0.991" fill="#7dc2c7" d="M 1637.5,144.5 C 1639.39,145.604 1641.06,146.937 1642.5,148.5C 1642.5,190.833 1642.5,233.167 1642.5,275.5C 1641.06,277.063 1639.39,278.396 1637.5,279.5C 1637.5,234.5 1637.5,189.5 1637.5,144.5 Z"/></g>
<g><path style="opacity:0.99" fill="#7dc1c7" d="M 1642.5,148.5 C 1644.03,148.427 1645.03,149.094 1645.5,150.5C 1645.5,191.5 1645.5,232.5 1645.5,273.5C 1645.03,274.906 1644.03,275.573 1642.5,275.5C 1642.5,233.167 1642.5,190.833 1642.5,148.5 Z"/></g>
<g><path style="opacity:0.988" fill="#79bfc9" d="M 1645.5,150.5 C 1652.98,155.411 1660.31,160.578 1667.5,166C 1674.69,170.095 1682.35,172.762 1690.5,174C 1701.19,174.291 1711.85,174.791 1722.5,175.5C 1722.5,199.833 1722.5,224.167 1722.5,248.5C 1703.73,248.26 1685.73,251.76 1668.5,259C 1660.78,263.855 1653.11,268.688 1645.5,273.5C 1645.5,232.5 1645.5,191.5 1645.5,150.5 Z"/></g>
<g><path style="opacity:0.986" fill="#6bb3d0" d="M 1893.5,153.5 C 1893.5,192.833 1893.5,232.167 1893.5,271.5C 1891.2,270.525 1889.2,269.192 1887.5,267.5C 1887.5,231.167 1887.5,194.833 1887.5,158.5C 1888.91,156.086 1890.91,154.419 1893.5,153.5 Z"/></g>
<g><path style="opacity:0.988" fill="#6ab4d0" d="M 1887.5,158.5 C 1887.5,194.833 1887.5,231.167 1887.5,267.5C 1885.12,266.649 1883.12,265.316 1881.5,263.5C 1881.5,230.167 1881.5,196.833 1881.5,163.5C 1883.46,161.844 1885.46,160.177 1887.5,158.5 Z"/></g>
<g><path style="opacity:0.987" fill="#6cb4cf" d="M 1881.5,163.5 C 1881.5,196.833 1881.5,230.167 1881.5,263.5C 1874.67,258.855 1867.67,254.355 1860.5,250C 1855.88,249.006 1851.22,248.506 1846.5,248.5C 1846.5,223.833 1846.5,199.167 1846.5,174.5C 1852.28,174.51 1857.95,173.677 1863.5,172C 1869.67,169.412 1875.67,166.579 1881.5,163.5 Z"/></g>
<g><path style="opacity:0.989" fill="#000000" d="M 477.5,173.5 C 607.834,173.333 738.167,173.5 868.5,174C 873.019,174.519 876.519,176.686 879,180.5C 880.912,187.345 882.079,194.345 882.5,201.5C 881.74,214.322 879.906,226.989 877,239.5C 872.615,242.473 867.782,244.306 862.5,245C 737.839,246.585 613.172,246.918 488.5,246C 480.996,246.351 473.996,244.685 467.5,241C 463.453,236.673 461.286,231.507 461,225.5C 460.078,212.443 460.411,199.443 462,186.5C 465.24,179.752 470.406,175.418 477.5,173.5 Z"/></g>
<g><path style="opacity:0.988" fill="#000000" d="M 3249.5,173.5 C 3379.83,173.333 3510.17,173.5 3640.5,174C 3649.73,176.593 3653.89,182.76 3653,192.5C 3654.3,208.071 3652.97,223.405 3649,238.5C 3644.08,242.03 3638.58,244.197 3632.5,245C 3564.84,246.104 3497.17,246.604 3429.5,246.5C 3369.15,246.647 3308.81,246.147 3248.5,245C 3239.55,243.049 3234.38,237.549 3233,228.5C 3231.08,215.163 3231.08,201.83 3233,188.5C 3235.53,180.131 3241.03,175.131 3249.5,173.5 Z"/></g>
<g><path style="opacity:0.995" fill="#73b9cc" d="M 1801.5,174.5 C 1801.5,199.167 1801.5,223.833 1801.5,248.5C 1784.83,248.5 1768.17,248.5 1751.5,248.5C 1751.5,224.167 1751.5,199.833 1751.5,175.5C 1768.18,175.599 1784.84,175.265 1801.5,174.5 Z"/></g>
<g><path style="opacity:0.982" fill="#70b8cd" d="M 1801.5,174.5 C 1802.5,174.5 1803.5,174.5 1804.5,174.5C 1804.5,199.5 1804.5,224.5 1804.5,249.5C 1803.39,249.443 1802.39,249.11 1801.5,248.5C 1801.5,223.833 1801.5,199.167 1801.5,174.5 Z"/></g>
<g><path style="opacity:0.98" fill="#71b7cc" d="M 1804.5,174.5 C 1805.5,174.5 1806.5,174.5 1807.5,174.5C 1807.5,199.5 1807.5,224.5 1807.5,249.5C 1806.5,249.5 1805.5,249.5 1804.5,249.5C 1804.5,224.5 1804.5,199.5 1804.5,174.5 Z"/></g>
<g><path style="opacity:0.981" fill="#6fb7cd" d="M 1807.5,174.5 C 1813.5,174.5 1819.5,174.5 1825.5,174.5C 1825.5,199.5 1825.5,224.5 1825.5,249.5C 1819.5,249.5 1813.5,249.5 1807.5,249.5C 1807.5,224.5 1807.5,199.5 1807.5,174.5 Z"/></g>
<g><path style="opacity:0.986" fill="#6eb6cf" d="M 1825.5,174.5 C 1832.5,174.5 1839.5,174.5 1846.5,174.5C 1846.5,199.167 1846.5,223.833 1846.5,248.5C 1839.41,248.205 1832.41,248.538 1825.5,249.5C 1825.5,224.5 1825.5,199.5 1825.5,174.5 Z"/></g>
<g><path style="opacity:0.995" fill="#75bbcb" d="M 1722.5,175.5 C 1732.17,175.5 1741.83,175.5 1751.5,175.5C 1751.5,199.833 1751.5,224.167 1751.5,248.5C 1741.83,248.5 1732.17,248.5 1722.5,248.5C 1722.5,224.167 1722.5,199.833 1722.5,175.5 Z"/></g>
<g><path style="opacity:0.984" fill="#64afd5" d="M 1969.5,232.5 C 1971.03,232.427 1972.03,233.094 1972.5,234.5C 1972.5,263.5 1972.5,292.5 1972.5,321.5C 1971.29,321.068 1970.29,320.401 1969.5,319.5C 1969.5,290.5 1969.5,261.5 1969.5,232.5 Z"/></g>
<g><path style="opacity:0.987" fill="#63afd5" d="M 1972.5,234.5 C 1976.48,236.806 1980.48,239.139 1984.5,241.5C 1984.5,270.5 1984.5,299.5 1984.5,328.5C 1980.16,326.668 1976.16,324.335 1972.5,321.5C 1972.5,292.5 1972.5,263.5 1972.5,234.5 Z"/></g>
<g><path style="opacity:0.986" fill="#60acd6" d="M 1984.5,241.5 C 2002.72,252.771 2020.39,264.771 2037.5,277.5C 2037.5,306.833 2037.5,336.167 2037.5,365.5C 2033.04,362.213 2028.71,358.713 2024.5,355C 2010.93,346.391 1997.6,337.558 1984.5,328.5C 1984.5,299.5 1984.5,270.5 1984.5,241.5 Z"/></g>
<g><path style="opacity:0.988" fill="#84c7c3" d="M 1551.5,249.5 C 1551.5,278.5 1551.5,307.5 1551.5,336.5C 1549.8,338.192 1547.8,339.525 1545.5,340.5C 1545.5,311.5 1545.5,282.5 1545.5,253.5C 1547.5,252.167 1549.5,250.833 1551.5,249.5 Z"/></g>
<g><path style="opacity:0.985" fill="#86c9c2" d="M 1545.5,253.5 C 1545.5,282.5 1545.5,311.5 1545.5,340.5C 1534.1,347.966 1523.27,356.299 1513,365.5C 1508.98,371.206 1506.32,377.539 1505,384.5C 1500.55,395.446 1493.38,404.113 1483.5,410.5C 1483.5,372.5 1483.5,334.5 1483.5,296.5C 1504.48,282.672 1525.14,268.339 1545.5,253.5 Z"/></g>
<g><path style="opacity:0.988" fill="#5ba9d8" d="M 2037.5,277.5 C 2051.12,284.644 2064.12,292.811 2076.5,302C 2081.96,305.064 2087.62,307.564 2093.5,309.5C 2093.5,345.5 2093.5,381.5 2093.5,417.5C 2091.5,417.5 2089.5,417.5 2087.5,417.5C 2073.25,414.784 2061.42,407.784 2052,396.5C 2046.87,386.265 2042.04,375.931 2037.5,365.5C 2037.5,336.167 2037.5,306.833 2037.5,277.5 Z"/></g>
<g><path style="opacity:0.991" fill="#88ccc0" d="M 1483.5,296.5 C 1483.5,334.5 1483.5,372.5 1483.5,410.5C 1481.5,411.5 1479.5,412.5 1477.5,413.5C 1477.5,375.833 1477.5,338.167 1477.5,300.5C 1479.23,298.774 1481.23,297.441 1483.5,296.5 Z"/></g>
<g><path style="opacity:0.989" fill="#88ccc1" d="M 1477.5,300.5 C 1477.5,338.167 1477.5,375.833 1477.5,413.5C 1476.83,413.833 1476.17,414.167 1475.5,414.5C 1475.5,377.167 1475.5,339.833 1475.5,302.5C 1475.83,301.5 1476.5,300.833 1477.5,300.5 Z"/></g>
<g><path style="opacity:0.99" fill="#88ccc1" d="M 1475.5,302.5 C 1475.5,339.833 1475.5,377.167 1475.5,414.5C 1471.75,415.614 1468.08,416.614 1464.5,417.5C 1462.17,417.5 1459.83,417.5 1457.5,417.5C 1457.5,381.5 1457.5,345.5 1457.5,309.5C 1463.72,307.721 1469.72,305.388 1475.5,302.5 Z"/></g>
<g><path style="opacity:0.991" fill="#8acdc0" d="M 1457.5,309.5 C 1457.5,345.5 1457.5,381.5 1457.5,417.5C 1456.17,417.5 1454.83,417.5 1453.5,417.5C 1447.82,416.666 1442.16,415.332 1436.5,413.5C 1436.5,380.167 1436.5,346.833 1436.5,313.5C 1443.41,311.652 1450.41,310.319 1457.5,309.5 Z"/></g>
<g><path style="opacity:0.991" fill="#58a7d9" d="M 2093.5,309.5 C 2100.82,309.822 2107.82,311.156 2114.5,313.5C 2114.5,347.167 2114.5,380.833 2114.5,414.5C 2109.39,415.588 2104.39,416.588 2099.5,417.5C 2097.5,417.5 2095.5,417.5 2093.5,417.5C 2093.5,381.5 2093.5,345.5 2093.5,309.5 Z"/></g>
<g><path style="opacity:0.975" fill="#8bcfbe" d="M 1436.5,313.5 C 1436.5,346.833 1436.5,380.167 1436.5,413.5C 1414.21,404.682 1402.54,388.182 1401.5,364C 1402.21,339.364 1413.88,322.531 1436.5,313.5 Z"/></g>
<g><path style="opacity:0.99" fill="#57a6da" d="M 2114.5,313.5 C 2119.45,314.371 2124.11,316.038 2128.5,318.5C 2128.5,348.5 2128.5,378.5 2128.5,408.5C 2124.07,411.048 2119.4,413.048 2114.5,414.5C 2114.5,380.833 2114.5,347.167 2114.5,313.5 Z"/></g>
<g><path style="opacity:0.989" fill="#000000" d="M 478.5,318.5 C 608.5,318.333 738.5,318.5 868.5,319C 874.127,319.957 877.96,323.124 880,328.5C 883.731,346.682 883.064,364.682 878,382.5C 872.612,386.773 866.445,389.273 859.5,390C 794.34,391.091 729.174,391.591 664,391.5C 602.158,391.612 540.324,391.112 478.5,390C 467.278,388.416 461.445,381.916 461,370.5C 460.333,359.167 460.333,347.833 461,336.5C 462.345,325.99 468.179,319.99 478.5,318.5 Z"/></g>
<g><path style="opacity:0.983" fill="#57a6db" d="M 2128.5,318.5 C 2129.71,318.932 2130.71,319.599 2131.5,320.5C 2131.5,349.167 2131.5,377.833 2131.5,406.5C 2130.71,407.401 2129.71,408.068 2128.5,408.5C 2128.5,378.5 2128.5,348.5 2128.5,318.5 Z"/></g>
<g><path style="opacity:0.993" fill="#000000" d="M 3252.5,318.5 C 3380.5,318.333 3508.5,318.5 3636.5,319C 3649.19,321.031 3655.36,328.531 3655,341.5C 3655.67,350.5 3655.67,359.5 3655,368.5C 3655.09,380.065 3649.59,387.231 3638.5,390C 3602.01,390.951 3565.51,391.451 3529,391.5C 3435.83,390.875 3342.67,390.375 3249.5,390C 3240.45,388.617 3234.95,383.451 3233,374.5C 3230.7,358.682 3231.37,343.015 3235,327.5C 3239.45,321.767 3245.28,318.767 3252.5,318.5 Z"/></g>
<g><path style="opacity:0.983" fill="#56a6da" d="M 2131.5,320.5 C 2135.12,322.453 2138.12,325.119 2140.5,328.5C 2140.5,351.833 2140.5,375.167 2140.5,398.5C 2138.12,401.881 2135.12,404.547 2131.5,406.5C 2131.5,377.833 2131.5,349.167 2131.5,320.5 Z"/></g>
<g><path style="opacity:0.974" fill="#56a6db" d="M 2140.5,328.5 C 2142.97,330.77 2144.97,333.437 2146.5,336.5C 2146.5,354.5 2146.5,372.5 2146.5,390.5C 2144.97,393.563 2142.97,396.23 2140.5,398.5C 2140.5,375.167 2140.5,351.833 2140.5,328.5 Z"/></g>
<g><path style="opacity:0.946" fill="#55a5da" d="M 2146.5,336.5 C 2148.07,338.509 2149.07,340.843 2149.5,343.5C 2149.5,357.167 2149.5,370.833 2149.5,384.5C 2149.01,386.819 2148.01,388.819 2146.5,390.5C 2146.5,372.5 2146.5,354.5 2146.5,336.5 Z"/></g>
<g><path style="opacity:0.868" fill="#54a5db" d="M 2149.5,343.5 C 2152.7,349.673 2154.04,356.339 2153.5,363.5C 2153.94,370.964 2152.61,377.964 2149.5,384.5C 2149.5,370.833 2149.5,357.167 2149.5,343.5 Z"/></g>
</svg>
